<svg id="Layer_1" data-name="Layer 1" xmlns="http://www.w3.org/2000/svg" viewBox="0 0 690.59 372.89"><defs><style>.cls-1{fill:#00bcd4;}.cls-2{fill:#455a64;}</style></defs><title>max-renew-logo</title><path class="cls-1" d="M197,113.2c0-9,3.07-16.82,8.86-22.61,7.42-7.42,19.54-11.76,35.27-11.76a79.94,79.94,0,0,1,22.43,3.26L263.9,81a19.78,19.78,0,0,0,.72-4.89c0-6.15-4.88-9.58-15.19-9.58a94.94,94.94,0,0,0-17.78,1.84A9.38,9.38,0,0,1,220.55,61l-3.5-18c10.67-3.26,26.41-5.24,40.7-5.24,32.74,0,47.93,12.48,47.93,32.2a55.35,55.35,0,0,1-1.81,13.75L289.41,138H258.66a7.88,7.88,0,0,1-7.6-10h0c-8.86,7.42-16.28,12.12-27.68,12.12C208.19,140.15,197,130.21,197,113.2Zm62.23-12.3,1.09-4.16a27.63,27.63,0,0,0-7.6-1.09c-5.61,0-9.95,1.45-12.66,4.16a12.86,12.86,0,0,0-3.44,9.23c0,5.06,2.9,7.78,6.69,7.78C249.79,116.82,256.85,110.13,259.2,100.9Z" transform="translate(-11.02 -11.13)"/><path class="cls-1" d="M354.93,59.48,393.71,16.1a13,13,0,0,1,10-4.74h38.55l-71.8,78L390.2,138h-32.3a13,13,0,0,1-12.36-9l-3.81-12-13.29,16.23a13,13,0,0,1-10,4.75H279.86l46.31-50.83L306.81,39.22h32.25a13,13,0,0,1,12.38,9.1Z" transform="translate(-11.02 -11.13)"/><path class="cls-1" d="M180.31,11.36,113.14,87.51l12.36,32.75h.72l41.24-45-13.83,51.61A8.86,8.86,0,0,0,162.2,138h30.6l34-126.62Z" transform="translate(-11.02 -11.13)"/><path class="cls-1" d="M132.07,46l-6.76-23.42a15.47,15.47,0,0,0-14.87-11.18H84.27L50.26,138H91.68L106.6,75.85Z" transform="translate(-11.02 -11.13)"/><path class="cls-2" d="M73.61,243.38H63.12l-6.9,25.55a14.37,14.37,0,0,1-13.88,10.63H11L45,152.94H94.41c23.34,0,38.17,5.07,46.67,13.57,7.05,7.05,10,16.46,10,26.41,0,11.94-3.62,22.61-12.3,31.29-5.43,5.43-12.84,10-23,13.21l17.54,42.15H100.51a18.72,18.72,0,0,1-17.44-11.92Zm12.84-30.21c8.32,0,14.47-2.35,17.91-5.79a12.18,12.18,0,0,0,3.62-8.68,9.29,9.29,0,0,0-2.71-6.69c-2.35-2.35-6.51-3.62-12.48-3.62h-15l-6.69,24.78Z" transform="translate(-11.02 -11.13)"/><path class="cls-2" d="M169.43,239.77c.55,8,5.61,13.2,14.83,13.2a27.06,27.06,0,0,0,12.36-3.14,11.74,11.74,0,0,1,14.06,2.33l12.47,13.66a61.59,61.59,0,0,1-42.33,16.1c-30,0-48.48-17.55-48.48-43.41a61.53,61.53,0,0,1,17.55-43.05c10.49-10.49,24.78-17,42.51-17,32.56,0,43.41,22.07,43.41,42.87a60.65,60.65,0,0,1-2.9,18.45ZM172,221.68h27.86a12.17,12.17,0,0,0,.73-4.34,10.31,10.31,0,0,0-10.68-10.49,17.22,17.22,0,0,0-12.12,5.24A24.68,24.68,0,0,0,172,221.68Z" transform="translate(-11.02 -11.13)"/><path class="cls-2" d="M245.78,180.8h28.33a9.8,9.8,0,0,1,9.47,12.31h0c6.51-8,17.18-14.65,29.48-14.65,18.09,0,28.22,11.76,28.22,30.21a63.44,63.44,0,0,1-2.35,16.64l-11.26,42.23a16.21,16.21,0,0,1-15.67,12H283.4l13.21-49.2a29.32,29.32,0,0,0,1.08-7.42c0-5.25-2.71-8.68-8.68-8.68-8.14,0-12.48,5.42-15.38,16.1l-10,37.19a16.21,16.21,0,0,1-15.66,12H219.37Z" transform="translate(-11.02 -11.13)"/><path class="cls-2" d="M369.92,239.77c.54,8,5.61,13.2,14.83,13.2a27.06,27.06,0,0,0,12.36-3.14,11.74,11.74,0,0,1,14.06,2.33l12.47,13.66a61.59,61.59,0,0,1-42.33,16.1c-30,0-48.48-17.55-48.48-43.41a61.53,61.53,0,0,1,17.55-43.05c10.49-10.49,24.78-17,42.51-17,32.56,0,43.41,22.07,43.41,42.87a60.65,60.65,0,0,1-2.9,18.45Zm2.53-18.09h27.86a12.17,12.17,0,0,0,.73-4.34,10.31,10.31,0,0,0-10.68-10.49,17.22,17.22,0,0,0-12.12,5.24A24.68,24.68,0,0,0,372.46,221.68Z" transform="translate(-11.02 -11.13)"/><path class="cls-2" d="M431.71,180.8h22.9a15.23,15.23,0,0,1,15.23,15.44l-.33,24.35,18.11-31.91a16.27,16.27,0,0,1,14.15-8.24H525L526.31,221l16.88-32a15.23,15.23,0,0,1,13.48-8.13h30.42l-51.95,91a16.84,16.84,0,0,1-14.63,8.49h-24L494.65,238l-20.08,34a16.84,16.84,0,0,1-14.51,8.29H435Z" transform="translate(-11.02 -11.13)"/><path class="cls-2" d="M701.35,201.17A173.38,173.38,0,0,0,487.77,42l-11.1-30.87L406,94.66l107.65,19.42L501.62,80.54a132.78,132.78,0,0,1,159.31,134A132.82,132.82,0,0,1,454.48,321.07a22,22,0,0,0-28.57,3.66l-13.45,15A172.13,172.13,0,0,0,528,384q4.81,0,9.67-.26A173.4,173.4,0,0,0,701.35,201.17Z" transform="translate(-11.02 -11.13)"/></svg>