<?xml version="1.0" encoding="utf-8"?>
<!-- Generator: Adobe Illustrator 21.0.2, SVG Export Plug-In . SVG Version: 6.00 Build 0)  -->
<svg version="1.1" id="Layer_1" xmlns="http://www.w3.org/2000/svg" xmlns:xlink="http://www.w3.org/1999/xlink" x="0px" y="0px"
	 viewBox="0 0 517.5 177.6" style="enable-background:new 0 0 517.5 177.6;" xml:space="preserve">
<style type="text/css">
	.st0{fill:#242021;}
	.st1{fill:url(#SVGID_1_);}
	.st2{opacity:0.5;fill:url(#SVGID_2_);}
	.st3{fill:#FF0000;}
	.st4{opacity:0.52;fill:url(#SVGID_3_);}
	.st5{opacity:0.7;fill:url(#SVGID_4_);}
	.st6{clip-path:url(#SVGID_6_);}
	.st7{clip-path:url(#SVGID_8_);}
	.st8{clip-path:url(#SVGID_12_);}
	.st9{clip-path:url(#SVGID_14_);}
	.st10{clip-path:url(#SVGID_18_);}
	.st11{clip-path:url(#SVGID_20_);}
	.st12{fill:#4B4F54;}
</style>
<path class="st0" d="M116.6,65.8c0.1-5.8-2.9-11.3-7.8-14.4c-4.6-3.2-10.1-5-15.7-5.1c-2.2-0.1-4.4,0.6-6.2,1.9
	c-1.5,1.2-2.4,3.1-2.3,5c0,1.4,0.5,2.8,1.5,3.9c1.7,1.5,3.7,2.7,5.8,3.7c10,5.2,16.7,8.9,19.9,11.2c2.8,1.8,5.1,4.3,6.7,7.2
	c1.3,2.8,1.9,5.8,1.8,8.9c0.2,4.7-1.4,9.3-4.4,12.9c-3.2,3.6-7.4,6.2-12,7.5c-4.4,1.5-9.1,2.2-13.7,2.3c-6.4,0-12.7-2.1-17.9-6
	l-9.2,6.7V84.9h2.6v0.3c-0.1,3.9,0.8,7.7,2.6,11.1c2.1,3.3,4.9,6.1,8.3,8.1c3.4,2.3,7.4,3.5,11.6,3.6c3,0.1,6-0.6,8.6-2.1
	c2-1.1,3.2-3.1,3.3-5.4c0-1.3-0.5-2.6-1.3-3.6c-1-1.2-2.2-2.3-3.6-3.1c-1.5-0.9-5-2.7-10.6-5.4c-12.7-6.2-19.1-13.7-19.1-22.5
	c-0.1-6.1,2.7-12,7.5-15.8c5-4.2,11.2-6.3,18.6-6.3c2.7,0,5.4,0.3,8,0.8c3.6,0.9,7,2.3,10.1,4.2l9.3-6.6v23.5H116.6 M203.4,109.1
	h-41.7v-2.2h7.7L163,89.6h-23.6c-0.6,1.8-0.9,3.6-0.9,5.5c-0.1,3,0.9,6,2.7,8.4c1.8,2.3,5,3.4,9.6,3.4v2.2h-26.5v-2.2
	c2-0.6,4-2.3,6.1-5.1c2.1-2.8,3.8-6,5.1-9.3l18.1-46.9h23.2l22.9,61.3h3.8L203.4,109.1 M162.2,87.3l-11-29.6H151l-10.9,29.6H162.2
	 M286.8,47.8c-7.2,0.5-10.8,6.5-10.8,17.8v43.5h-16.4l-40.4-51.9v30.2c0,12.9,4.2,19.4,12.7,19.4v2.3h-26.3v-2.2
	c3.6,0,6.8-2,8.4-5.2c1.7-3.4,2.5-7.1,2.5-10.8V53.6l-4.5-5.8h-6.4v-2.2H245l28.3,36.4V66.4c0-6.3-1-10.9-2.8-14
	c-1.8-3-5.1-4.8-8.6-4.6h-2.2v-2.2h27.2L286.8,47.8 M337,109.1h-45.7v-2.2h7.9v-59h-7.9v-2.3H337v2.2h-8.2v59h8.2L337,109.1
	 M432.6,109.1h-41.4v-2.2h7l-17-30.6H381v30.6h7.8v2.2h-45.6v-2.2h8.1v-59h-8.1v-2.3h46.2v2.2h-8.4v25.4
	c12.9-9.1,19.9-14.2,21.2-15.3c1.2-0.9,1.9-2.4,1.9-3.9c0-4.1-3.3-6.2-9.9-6.2h-0.9v-2.2h36v2.2H428c-3.3,0-7.1,1.2-11.3,3.5
	c-4.7,2.7-9.3,5.8-13.5,9.2l26,46.3h3.4V109.1 M512.8,109.1h-41.7v-2.2h7.7l-6.4-17.3h-23.6c-0.6,1.8-0.9,3.6-0.9,5.5
	c-0.1,3,0.8,6,2.7,8.4c1.8,2.3,5,3.4,9.6,3.4v2.2h-26.5v-2.2c2-0.6,4-2.3,6.1-5.1c2.1-2.8,3.8-6,5.1-9.3l18.1-46.9h23.2l22.9,61.3
	h3.8V109.1 M471.7,87.3l-11-29.6h-0.2l-10.9,29.6H471.7"/>
<linearGradient id="SVGID_1_" gradientUnits="userSpaceOnUse" x1="215.264" y1="36.9314" x2="215.264" y2="68.2614" gradientTransform="matrix(1 0 0 -1 72.72 176.9028)">
	<stop  offset="0" style="stop-color:#242021;stop-opacity:0"/>
	<stop  offset="0.34" style="stop-color:#242021;stop-opacity:0.11"/>
	<stop  offset="0.66" style="stop-color:#242021;stop-opacity:0.43"/>
	<stop  offset="0.99" style="stop-color:#242021;stop-opacity:0.97"/>
	<stop  offset="1" style="stop-color:#242021"/>
</linearGradient>
<path class="st1" d="M116.6,154.2h2.5v23.4l-9.4-6.6c-3.1,1.9-6.5,3.4-10.1,4.2c-2.6,0.5-5.3,0.8-8,0.9c-7.5,0-13.7-2.1-18.6-6.3
	c-4.8-3.8-7.5-9.7-7.4-15.8c0-8.8,6.4-16.2,19.1-22.5c5.5-2.7,9-4.5,10.6-5.4c1.4-0.8,2.6-1.8,3.6-3.1c0.9-1,1.3-2.3,1.3-3.6
	c0-2.3-1.3-4.3-3.3-5.4c-2.6-1.5-5.6-2.2-8.6-2c-4.1,0.1-8.1,1.3-11.6,3.6c-3.4,2-6.2,4.8-8.3,8.1c-1.9,3.4-2.8,7.2-2.7,11.1v0.2
	h-2.6v-26.7l9.1,6.7c5.2-3.9,11.4-6,17.9-6c4.7,0.1,9.3,0.9,13.7,2.3c4.6,1.3,8.8,3.9,12,7.5c3,3.6,4.6,8.2,4.4,12.9
	c0.1,3.1-0.6,6.1-1.8,8.9c-1.6,2.9-3.9,5.4-6.7,7.2c-3.2,2.3-9.9,6-19.9,11.2c-2.1,1-4,2.2-5.8,3.7c-1,1-1.5,2.4-1.5,3.9
	c0,1.9,0.8,3.8,2.3,5c1.8,1.4,3.9,2,6.2,1.9c5.6-0.1,11.1-1.9,15.7-5.1C113.7,165.5,116.7,160.1,116.6,154.2 M161.8,108v2.2h7.7
	l-6.4,17.3h-23.7c-0.6-1.8-0.9-3.6-0.9-5.5c-0.1-3,0.9-6,2.7-8.4c1.8-2.3,5-3.4,9.6-3.4V108h-26.5v2.2c2,0.6,4,2.3,6.1,5.1
	c2.1,2.8,3.8,6,5.1,9.3l18.1,46.9h23.2l22.9-61.2h3.8V108L161.8,108z M151.3,162.2h-0.2l-11-29.6h22.1L151.3,162.2z M286.8,169.2
	v2.2h-27.2v-2.2h2.3c3.5,0.2,6.8-1.6,8.6-4.6c1.9-3.1,2.9-7.7,2.9-14v-15.6L245,171.4h-39.4v-2.2h6.4l4.5-5.8v-37.2
	c0-3.7-0.8-7.4-2.5-10.8c-1.5-3.2-4.8-5.3-8.4-5.2V108h26.3v2.2c-8.5,0.1-12.7,6.5-12.7,19.4v30.2l40.4-51.9H276v43.4
	C276,162.7,279.6,168.7,286.8,169.2 M337,108v2.2h-8.2v59h8.2v2.2h-45.8v-2.2h7.9v-59h-7.9V108L337,108 M432.6,108v2.2h-3.4
	l-26,46.3c4.3,3.4,8.8,6.5,13.5,9.2c4.2,2.3,7.9,3.5,11.3,3.5h1.2v2.2h-36v-2.2h0.9c6.6,0,9.9-2.1,9.9-6.2c0-1.5-0.7-3-1.9-3.9
	c-1.3-1.1-8.3-6.1-21.2-15.3v25.4h8.4v2.2h-46.2v-2.2h8.1v-59h-8.1V108h45.5v2.2h-7.8v30.6h0.2l17-30.6h-7V108H432.6 M471.1,108v2.2
	h7.7l-6.4,17.3h-23.6c-0.6-1.8-0.9-3.6-0.9-5.5c-0.1-3,0.8-6,2.7-8.4c1.8-2.3,5-3.4,9.6-3.4V108h-26.5v2.2c2,0.6,4,2.3,6.1,5.1
	c2.1,2.8,3.8,6,5.1,9.3l18.1,46.9h23.2l22.9-61.2h3.8V108H471.1z M460.7,162.2h-0.2l-10.9-29.6h22.1L460.7,162.2z"/>
<g>
	<radialGradient id="SVGID_2_" cx="30.1824" cy="30.1824" r="30.1824" gradientUnits="userSpaceOnUse">
		<stop  offset="0.8834" style="stop-color:#000000"/>
		<stop  offset="0.8884" style="stop-color:#000000;stop-opacity:0.9535"/>
		<stop  offset="0.991" style="stop-color:#000000;stop-opacity:0"/>
	</radialGradient>
	<circle class="st2" cx="30.2" cy="30.2" r="30.2"/>
	<circle class="st3" cx="30.2" cy="30.2" r="26.7"/>
	<radialGradient id="SVGID_3_" cx="22.1824" cy="34.8491" r="35.6274" gradientUnits="userSpaceOnUse">
		<stop  offset="0" style="stop-color:#FFFFFF"/>
		<stop  offset="1" style="stop-color:#FFFFFF;stop-opacity:0"/>
	</radialGradient>
	<circle class="st4" cx="30.2" cy="30.2" r="26.7"/>
	<radialGradient id="SVGID_4_" cx="15.8491" cy="37.8491" r="51.6274" gradientUnits="userSpaceOnUse">
		<stop  offset="0.4721" style="stop-color:#231F20;stop-opacity:0"/>
		<stop  offset="1" style="stop-color:#231F20"/>
	</radialGradient>
	<circle class="st5" cx="30.2" cy="30.2" r="26.7"/>
	<g>
		<g>
			<defs>
				<path id="SVGID_5_" d="M40.6,9.3c0,0,1,2.3,1.8,4.9c0,0,5.4,2.1,11.6,13C54.1,27.3,51.2,13.9,40.6,9.3 M5.5,24.5
					c0,0-3.2,23.5,20.9,29.6c0,0-2.1-5.4-2.5-6.7C23.9,47.4,9.3,43.3,5.5,24.5 M30.2,56.9c-14.8,0-26.8-12-26.8-26.7
					c0-14.8,12-26.8,26.8-26.8c14.8,0,26.7,12,26.7,26.8C56.9,45,45,56.9,30.2,56.9"/>
			</defs>
			<clipPath id="SVGID_6_">
				<use xlink:href="#SVGID_5_"  style="overflow:visible;"/>
			</clipPath>
			<g class="st6">
				<g>
					<defs>
						
							<rect id="SVGID_7_" x="-8" y="-7.6" transform="matrix(0.5801 -0.8146 0.8146 0.5801 -12.1567 36.7837)" width="75.3" height="75.6"/>
					</defs>
					<clipPath id="SVGID_8_">
						<use xlink:href="#SVGID_7_"  style="overflow:visible;"/>
					</clipPath>
					<g class="st7">
						<defs>
							
								<rect id="SVGID_9_" x="-43.7" y="-43.2" transform="matrix(0.5801 -0.8146 0.8146 0.5801 -12.1569 36.7836)" width="146.7" height="146.7"/>
						</defs>
						<clipPath id="SVGID_10_">
							<use xlink:href="#SVGID_9_"  style="overflow:visible;"/>
						</clipPath>
						<g style="clip-path:url(#SVGID_10_);">
							
								<image style="overflow:visible;" width="854" height="853" xlink:href="9A35690A7DFECCBC.jpg"  transform="matrix(0.24 0 0 0.24 -72.816 -72.1986)">
							</image>
						</g>
					</g>
				</g>
			</g>
		</g>
		<g>
			<defs>
				<path id="SVGID_11_" d="M54.1,27.3c-6.2-11-11.6-13-11.6-13c-0.8-2.7-1.8-4.9-1.8-4.9C51.2,13.9,54.1,27.3,54.1,27.3"/>
			</defs>
			<clipPath id="SVGID_12_">
				<use xlink:href="#SVGID_11_"  style="overflow:visible;"/>
			</clipPath>
			<g class="st8">
				<g>
					<defs>
						
							<rect id="SVGID_13_" x="36.1" y="7.6" transform="matrix(0.5801 -0.8146 0.8146 0.5801 4.9831 46.246)" width="22.5" height="21.4"/>
					</defs>
					<clipPath id="SVGID_14_">
						<use xlink:href="#SVGID_13_"  style="overflow:visible;"/>
					</clipPath>
					<g class="st9">
						<defs>
							
								<rect id="SVGID_15_" x="26" y="-3" transform="matrix(0.5801 -0.8146 0.8146 0.5801 4.9837 46.2468)" width="42.7" height="42.6"/>
						</defs>
						<clipPath id="SVGID_16_">
							<use xlink:href="#SVGID_15_"  style="overflow:visible;"/>
						</clipPath>
						<g style="clip-path:url(#SVGID_16_);">
							
								<image style="overflow:visible;" width="249" height="250" xlink:href="9A35690A7DFECCBB.jpg"  transform="matrix(0.24 0 0 0.24 17.424 -11.4786)">
							</image>
						</g>
					</g>
				</g>
			</g>
		</g>
		<g>
			<defs>
				<path id="SVGID_17_" d="M26.3,54.1C2.3,48,5.5,24.5,5.5,24.5c3.8,18.8,18.4,22.9,18.4,22.9C24.3,48.7,26.3,54.1,26.3,54.1"/>
			</defs>
			<clipPath id="SVGID_18_">
				<use xlink:href="#SVGID_17_"  style="overflow:visible;"/>
			</clipPath>
			<g class="st10">
				<g>
					<defs>
						
							<rect id="SVGID_19_" x="-4.8" y="20.9" transform="matrix(0.5801 -0.8146 0.8146 0.5801 -26.0303 28.166)" width="38.1" height="36.8"/>
					</defs>
					<clipPath id="SVGID_20_">
						<use xlink:href="#SVGID_19_"  style="overflow:visible;"/>
					</clipPath>
					<g class="st11">
						<defs>
							
								<rect id="SVGID_21_" x="-22.1" y="2.9" transform="matrix(0.5801 -0.8146 0.8146 0.5801 -26.0301 28.1657)" width="72.9" height="72.8"/>
						</defs>
						<clipPath id="SVGID_22_">
							<use xlink:href="#SVGID_21_"  style="overflow:visible;"/>
						</clipPath>
						<g style="clip-path:url(#SVGID_22_);">
							
								<image style="overflow:visible;" width="424" height="424" xlink:href="9A35690A7DFECCC4.jpg"  transform="matrix(0.24 0 0 0.24 -36.576 -11.4786)">
							</image>
						</g>
					</g>
				</g>
			</g>
		</g>
	</g>
</g>
<g>
	<path class="st12" d="M58.4,145.4l2.8,12l0.6,3.3l0.6-3.3l2.4-12.1h4.6l2.5,12l0.6,3.3l0.6-3.2l2.8-12.2h4.5l-5.9,21h-4.2
		l-2.5-12.3l-0.7-4.1l-0.7,4.1l-2.5,12.3h-4.1l-6-21H58.4z"/>
	<path class="st12" d="M87.6,145.4h5l7.4,21h-4.8l-1.4-4.3h-7.7l-1.4,4.3h-4.6L87.6,145.4z M87.3,158.5h5.4l-2.7-8.3L87.3,158.5z"/>
	<path class="st12" d="M115.5,145.4v3.7h-6.3v17.3h-4.4v-17.3h-6.3v-3.7H115.5z"/>
	<path class="st12" d="M133.6,149.2h-11.1v4.5h10.2v3.6h-10.2v5.4h11.6v3.8h-15.9v-21h15.4V149.2z"/>
	<path class="st12" d="M151,146c0.8,0.3,1.4,0.8,2,1.5c0.4,0.5,0.8,1.1,1.1,1.8c0.3,0.6,0.4,1.4,0.4,2.2c0,1-0.3,2-0.8,2.9
		s-1.3,1.6-2.5,2c1,0.4,1.7,0.9,2.1,1.7c0.4,0.7,0.6,1.8,0.6,3.3v1.4c0,1,0,1.6,0.1,2c0.1,0.5,0.4,0.9,0.8,1.2v0.5h-4.8
		c-0.1-0.5-0.2-0.8-0.3-1.1c-0.1-0.6-0.2-1.2-0.2-1.8l0-2c0-1.3-0.2-2.2-0.7-2.7s-1.3-0.7-2.5-0.7h-4.3v8.2h-4.3v-21h10
		C149.1,145.5,150.2,145.7,151,146z M141.9,149.1v5.6h4.7c0.9,0,1.6-0.1,2.1-0.3c0.8-0.4,1.2-1.2,1.2-2.4c0-1.3-0.4-2.1-1.2-2.6
		c-0.5-0.2-1.1-0.4-2-0.4H141.9z"/>
	<path class="st12" d="M172.7,157.4c-1.2,1-3,1.5-5.3,1.5H163v7.5h-4.4v-21h9c2.1,0,3.7,0.5,5,1.6c1.2,1.1,1.9,2.8,1.9,5
		C174.5,154.6,173.9,156.3,172.7,157.4z M169.3,149.8c-0.6-0.5-1.3-0.7-2.3-0.7h-4v6.2h4c1,0,1.8-0.3,2.3-0.8
		c0.6-0.5,0.8-1.3,0.8-2.4S169.9,150.3,169.3,149.8z"/>
	<path class="st12" d="M191.5,146c0.8,0.3,1.4,0.8,2,1.5c0.4,0.5,0.8,1.1,1.1,1.8c0.3,0.6,0.4,1.4,0.4,2.2c0,1-0.3,2-0.8,2.9
		s-1.3,1.6-2.5,2c1,0.4,1.7,0.9,2.1,1.7c0.4,0.7,0.6,1.8,0.6,3.3v1.4c0,1,0,1.6,0.1,2c0.1,0.5,0.4,0.9,0.8,1.2v0.5h-4.8
		c-0.1-0.5-0.2-0.8-0.3-1.1c-0.1-0.6-0.2-1.2-0.2-1.8l0-2c0-1.3-0.2-2.2-0.7-2.7s-1.3-0.7-2.5-0.7h-4.3v8.2h-4.3v-21h10
		C189.6,145.5,190.7,145.7,191.5,146z M182.4,149.1v5.6h4.7c0.9,0,1.6-0.1,2.1-0.3c0.8-0.4,1.2-1.2,1.2-2.4c0-1.3-0.4-2.1-1.2-2.6
		c-0.5-0.2-1.1-0.4-2-0.4H182.4z"/>
	<path class="st12" d="M215.3,164.6c-1.6,1.6-3.9,2.5-6.9,2.5c-3,0-5.3-0.8-6.9-2.5c-2.1-2-3.2-4.9-3.2-8.7c0-3.8,1.1-6.7,3.2-8.7
		c1.6-1.6,3.9-2.5,6.9-2.5c3,0,5.3,0.8,6.9,2.5c2.1,1.9,3.2,4.8,3.2,8.7C218.5,159.7,217.4,162.6,215.3,164.6z M212.5,161.4
		c1-1.3,1.5-3.1,1.5-5.5c0-2.4-0.5-4.2-1.5-5.5c-1-1.3-2.4-1.9-4.1-1.9s-3.1,0.6-4.2,1.9c-1,1.3-1.6,3.1-1.6,5.5s0.5,4.2,1.6,5.5
		c1,1.3,2.4,1.9,4.2,1.9S211.5,162.7,212.5,161.4z"/>
	<path class="st12" d="M238,164.6c-1.6,1.6-3.9,2.5-6.9,2.5c-3,0-5.3-0.8-6.9-2.5c-2.1-2-3.2-4.9-3.2-8.7c0-3.8,1.1-6.7,3.2-8.7
		c1.6-1.6,3.9-2.5,6.9-2.5c3,0,5.3,0.8,6.9,2.5c2.1,1.9,3.2,4.8,3.2,8.7C241.1,159.7,240.1,162.6,238,164.6z M235.2,161.4
		c1-1.3,1.5-3.1,1.5-5.5c0-2.4-0.5-4.2-1.5-5.5c-1-1.3-2.4-1.9-4.1-1.9s-3.1,0.6-4.2,1.9c-1,1.3-1.6,3.1-1.6,5.5s0.5,4.2,1.6,5.5
		c1,1.3,2.4,1.9,4.2,1.9S234.2,162.7,235.2,161.4z"/>
	<path class="st12" d="M244.5,145.5h15v3.7h-10.6v4.8h9.3v3.6h-9.3v8.8h-4.4V145.5z"/>
	<path class="st12" d="M266.3,166.4H262v-21h4.4V166.4z"/>
	<path class="st12" d="M270.3,145.4h4.6l8.3,14.6v-14.6h4.1v21H283l-8.5-14.9v14.9h-4.1V145.4z"/>
	<path class="st12" d="M305.6,152c-0.3-1.4-1.1-2.4-2.4-3c-0.7-0.3-1.5-0.5-2.4-0.5c-1.7,0-3.1,0.6-4.2,1.9
		c-1.1,1.3-1.6,3.2-1.6,5.8c0,2.6,0.6,4.4,1.8,5.5c1.2,1.1,2.5,1.6,4,1.6c1.5,0,2.7-0.4,3.6-1.3c0.9-0.8,1.5-2,1.7-3.3h-4.9v-3.5
		h8.7v11.3h-2.9l-0.4-2.6c-0.8,1-1.6,1.7-2.3,2.1c-1.2,0.7-2.6,1.1-4.3,1.1c-2.8,0-5.1-1-6.8-2.9c-1.9-1.9-2.8-4.6-2.8-7.9
		c0-3.4,0.9-6.1,2.8-8.2s4.3-3.1,7.4-3.1c2.7,0,4.8,0.7,6.4,2c1.6,1.4,2.5,3,2.8,5.1H305.6z"/>
	<path class="st12" d="M325.4,160c0.1,1,0.4,1.7,0.8,2.2c0.7,0.9,2,1.3,3.7,1.3c1.1,0,1.9-0.1,2.6-0.3c1.3-0.4,1.9-1.2,1.9-2.4
		c0-0.7-0.3-1.2-0.9-1.6c-0.6-0.4-1.6-0.7-2.9-1l-2.3-0.5c-2.2-0.5-3.8-1-4.6-1.6c-1.4-1-2.1-2.5-2.1-4.5c0-1.9,0.7-3.4,2.1-4.7
		c1.4-1.2,3.4-1.9,6.1-1.9c2.2,0,4.2,0.6,5.7,1.8c1.6,1.2,2.4,2.9,2.5,5.1h-4.2c-0.1-1.3-0.6-2.2-1.7-2.7c-0.7-0.4-1.6-0.5-2.6-0.5
		c-1.2,0-2.1,0.2-2.8,0.7s-1,1.1-1,1.9c0,0.8,0.3,1.3,1,1.7c0.4,0.2,1.4,0.5,2.8,0.9l3.7,0.9c1.6,0.4,2.8,0.9,3.6,1.5
		c1.3,1,1.9,2.4,1.9,4.3c0,1.9-0.7,3.5-2.2,4.8c-1.5,1.3-3.6,1.9-6.3,1.9c-2.8,0-4.9-0.6-6.5-1.9c-1.6-1.2-2.4-3-2.4-5.1H325.4z"/>
	<path class="st12" d="M355.8,157.4c-1.2,1-3,1.5-5.3,1.5h-4.4v7.5h-4.4v-21h9c2.1,0,3.7,0.5,5,1.6c1.2,1.1,1.9,2.8,1.9,5
		C357.7,154.6,357.1,156.3,355.8,157.4z M352.5,149.8c-0.6-0.5-1.3-0.7-2.3-0.7h-4v6.2h4c1,0,1.8-0.3,2.3-0.8
		c0.6-0.5,0.8-1.3,0.8-2.4S353,150.3,352.5,149.8z"/>
	<path class="st12" d="M376.7,149.2h-11.1v4.5h10.2v3.6h-10.2v5.4h11.6v3.8h-15.9v-21h15.4V149.2z"/>
	<path class="st12" d="M382.7,147.6c1.7-1.7,3.8-2.6,6.5-2.6c3.5,0,6,1.2,7.7,3.5c0.9,1.3,1.4,2.6,1.4,3.9h-4.4
		c-0.3-1-0.6-1.8-1.1-2.3c-0.8-0.9-1.9-1.4-3.5-1.4c-1.6,0-2.8,0.6-3.7,1.9c-0.9,1.3-1.4,3.1-1.4,5.5c0,2.4,0.5,4.1,1.4,5.3
		s2.2,1.8,3.6,1.8c1.5,0,2.7-0.5,3.4-1.5c0.4-0.5,0.8-1.4,1.1-2.4h4.4c-0.4,2.3-1.3,4.1-2.9,5.6c-1.5,1.4-3.5,2.2-5.9,2.2
		c-3,0-5.3-1-7-2.9c-1.7-1.9-2.6-4.6-2.6-8C379.7,152.5,380.7,149.6,382.7,147.6z"/>
	<path class="st12" d="M405.7,166.4h-4.4v-21h4.4V166.4z"/>
	<path class="st12" d="M415.8,145.4h5l7.4,21h-4.8l-1.4-4.3h-7.7l-1.4,4.3h-4.6L415.8,145.4z M415.5,158.5h5.4l-2.7-8.3L415.5,158.5
		z"/>
	<path class="st12" d="M430.9,145.4h4.4v17.2h10.5v3.8h-14.9V145.4z"/>
	<path class="st12" d="M452.7,166.4h-4.4v-21h4.4V166.4z"/>
	<path class="st12" d="M460,160c0.1,1,0.4,1.7,0.8,2.2c0.7,0.9,2,1.3,3.7,1.3c1.1,0,1.9-0.1,2.6-0.3c1.3-0.4,1.9-1.2,1.9-2.4
		c0-0.7-0.3-1.2-0.9-1.6c-0.6-0.4-1.6-0.7-2.9-1l-2.3-0.5c-2.2-0.5-3.8-1-4.6-1.6c-1.4-1-2.1-2.5-2.1-4.5c0-1.9,0.7-3.4,2.1-4.7
		c1.4-1.2,3.4-1.9,6.1-1.9c2.2,0,4.2,0.6,5.7,1.8c1.6,1.2,2.4,2.9,2.5,5.1h-4.2c-0.1-1.3-0.6-2.2-1.7-2.7c-0.7-0.4-1.6-0.5-2.6-0.5
		c-1.2,0-2.1,0.2-2.8,0.7s-1,1.1-1,1.9c0,0.8,0.3,1.3,1,1.7c0.4,0.2,1.4,0.5,2.8,0.9l3.7,0.9c1.6,0.4,2.8,0.9,3.6,1.5
		c1.3,1,1.9,2.4,1.9,4.3c0,1.9-0.7,3.5-2.2,4.8c-1.5,1.3-3.6,1.9-6.3,1.9c-2.8,0-4.9-0.6-6.5-1.9c-1.6-1.2-2.4-3-2.4-5.1H460z"/>
	<path class="st12" d="M491.5,145.4v3.7h-6.3v17.3h-4.4v-17.3h-6.3v-3.7H491.5z"/>
	<path class="st12" d="M497.3,160c0.1,1,0.4,1.7,0.8,2.2c0.7,0.9,2,1.3,3.7,1.3c1.1,0,1.9-0.1,2.6-0.3c1.3-0.4,1.9-1.2,1.9-2.4
		c0-0.7-0.3-1.2-0.9-1.6c-0.6-0.4-1.6-0.7-2.9-1l-2.3-0.5c-2.2-0.5-3.8-1-4.6-1.6c-1.4-1-2.1-2.5-2.1-4.5c0-1.9,0.7-3.4,2.1-4.7
		c1.4-1.2,3.4-1.9,6.1-1.9c2.2,0,4.2,0.6,5.7,1.8c1.6,1.2,2.4,2.9,2.5,5.1h-4.2c-0.1-1.3-0.6-2.2-1.7-2.7c-0.7-0.4-1.6-0.5-2.6-0.5
		c-1.2,0-2.1,0.2-2.8,0.7s-1,1.1-1,1.9c0,0.8,0.3,1.3,1,1.7c0.4,0.2,1.4,0.5,2.8,0.9l3.7,0.9c1.6,0.4,2.8,0.9,3.6,1.5
		c1.3,1,1.9,2.4,1.9,4.3c0,1.9-0.7,3.5-2.2,4.8c-1.5,1.3-3.6,1.9-6.3,1.9c-2.8,0-4.9-0.6-6.5-1.9c-1.6-1.2-2.4-3-2.4-5.1H497.3z"/>
</g>
</svg>
