<?xml version="1.0" standalone="no"?>
<!DOCTYPE svg PUBLIC "-//W3C//DTD SVG 20010904//EN"
 "http://www.w3.org/TR/2001/REC-SVG-20010904/DTD/svg10.dtd">
<svg version="1.0" xmlns="http://www.w3.org/2000/svg"
 width="260.000000pt" height="260.000000pt" viewBox="0 0 260.000000 260.000000"
 preserveAspectRatio="xMidYMid meet">
<metadata>
Created by potrace 1.11, written by Peter Selinger 2001-2013
</metadata>
<g transform="translate(0.000000,260.000000) scale(0.100000,-0.100000)"
fill="#000000" stroke="none">
<path d="M1295 2440 c-3 -5 -1 -10 4 -10 6 0 11 5 11 10 0 6 -2 10 -4 10 -3 0
-8 -4 -11 -10z"/>
<path d="M1230 2420 c0 -5 -38 -9 -117 -13 -12 -1 -19 -5 -17 -9 8 -13 -31 -9
-46 5 -12 10 -12 9 -2 -4 10 -14 6 -18 -31 -29 -23 -8 -45 -13 -49 -12 -5 1
-8 -2 -8 -8 0 -5 -7 -6 -17 -3 -10 4 -14 2 -10 -4 7 -11 -42 -36 -69 -36 -7 0
-12 -5 -11 -11 1 -6 -6 -10 -15 -10 -10 1 -16 -2 -13 -6 2 -4 -4 -15 -15 -25
-11 -10 -20 -15 -20 -10 0 4 -17 -11 -39 -34 -21 -22 -44 -41 -52 -41 -7 0
-10 -3 -6 -6 7 -7 -24 -44 -33 -39 -4 2 -7 -1 -7 -8 0 -7 -19 -41 -41 -76 -23
-35 -42 -68 -42 -73 0 -5 -5 -6 -12 -2 -8 5 -9 2 -5 -9 3 -10 2 -17 -4 -17 -6
0 -7 -4 -4 -10 3 -5 -2 -10 -12 -10 -12 0 -14 -3 -6 -8 9 -6 6 -24 -11 -73
-12 -35 -20 -71 -18 -78 3 -8 0 -11 -5 -8 -5 3 -8 -6 -5 -24 3 -18 0 -29 -7
-29 -7 0 -9 -4 -6 -10 3 -5 0 -10 -7 -10 -9 -1 -8 -4 3 -10 13 -8 18 -39 8
-60 -7 -16 -3 -70 6 -70 5 0 4 -4 -4 -9 -9 -6 -10 -10 -2 -16 9 -5 9 -11 -1
-23 -7 -9 -8 -13 -2 -9 7 4 14 -2 17 -13 3 -11 0 -20 -6 -20 -9 0 -9 -2 -1 -8
16 -10 23 -60 10 -66 -6 -2 -3 -5 8 -5 12 -1 16 -6 13 -16 -4 -8 -2 -17 3 -20
6 -4 10 -15 10 -26 0 -10 5 -19 10 -19 6 0 10 -5 10 -11 0 -5 -4 -8 -8 -5 -5
3 -9 -1 -9 -9 0 -8 5 -13 11 -12 6 1 10 -6 9 -16 0 -10 1 -16 4 -13 3 3 15 -9
27 -27 36 -53 40 -61 28 -53 -6 3 -14 1 -18 -5 -4 -7 -3 -9 3 -6 5 3 20 -1 32
-9 18 -13 20 -19 10 -30 -9 -12 -9 -13 3 -9 17 7 77 -62 72 -83 -1 -7 0 -8 3
-2 8 16 26 12 19 -5 -3 -8 -1 -14 3 -12 11 3 47 -20 78 -50 13 -12 23 -19 23
-15 1 4 12 -6 26 -23 15 -16 23 -23 18 -15 -5 9 1 8 16 -5 13 -11 20 -14 16
-8 -4 7 20 -1 53 -18 52 -27 80 -36 129 -41 6 -1 12 -8 12 -15 0 -9 -5 -11
-12 -7 -7 4 -10 3 -6 -1 5 -5 20 -10 34 -11 25 -3 25 -2 8 12 -18 15 -18 15
-1 10 10 -3 23 -6 28 -6 6 0 7 -6 3 -12 -6 -10 -4 -10 8 0 13 10 17 10 22 0 5
-10 7 -10 12 -1 6 14 34 5 51 -16 10 -14 11 -13 10 4 -2 16 3 19 23 17 31 -5
52 -21 43 -35 -3 -6 -1 -7 6 -3 9 6 9 11 1 21 -7 8 -7 15 -1 19 5 3 11 1 13
-6 3 -7 9 -8 19 -3 7 5 25 10 39 12 62 5 91 10 97 16 11 12 21 8 26 -10 3 -13
5 -11 6 6 0 13 4 21 8 18 3 -4 12 -2 19 4 9 7 19 7 36 -2 20 -11 22 -10 10 3
-10 13 -9 16 7 21 12 3 18 0 17 -7 -2 -6 -1 -8 1 -3 3 4 9 5 14 2 5 -4 6 2 2
11 -4 12 -3 15 5 10 7 -4 12 -2 12 3 0 6 9 11 21 11 12 0 17 4 13 11 -4 8 -1
8 13 1 15 -9 20 -8 20 3 0 8 -5 12 -11 9 -6 -3 -2 2 9 11 11 9 28 14 38 11 9
-2 14 0 11 5 -3 6 0 16 6 24 10 12 16 12 38 -1 20 -12 23 -12 10 -1 -25 20
-22 30 5 22 17 -5 19 -4 7 4 -13 9 -13 12 2 27 14 14 20 15 32 5 11 -9 16 -9
22 0 4 7 3 9 -4 5 -5 -3 -12 0 -14 6 -3 7 13 31 34 52 21 22 38 43 38 48 0 5
5 6 10 3 6 -4 7 -11 4 -17 -4 -7 -2 -8 4 -4 6 4 9 13 6 20 -8 22 25 79 42 72
12 -5 12 -2 3 16 -10 18 -9 20 6 14 13 -5 15 -3 8 6 -11 15 9 63 21 50 5 -4 7
2 6 13 -4 33 -1 45 11 45 8 0 8 -4 0 -14 -9 -11 -9 -16 0 -22 7 -4 9 -3 5 4
-3 6 -2 13 4 17 7 4 6 13 -1 27 -10 18 -9 20 6 14 15 -5 16 -4 6 8 -9 11 -10
20 -1 36 6 11 8 26 4 32 -5 7 -2 9 8 6 8 -4 15 0 15 8 0 7 -4 11 -9 8 -4 -3
-8 4 -8 15 0 12 5 21 10 21 6 0 10 5 10 11 0 5 -4 8 -8 5 -4 -2 -8 4 -8 14 0
10 5 16 10 13 5 -4 7 1 3 9 -3 9 0 21 6 28 9 10 9 11 -2 5 -10 -5 -12 -3 -7
11 3 11 1 26 -4 34 -7 11 -4 19 11 31 20 15 20 16 2 30 -16 13 -17 13 -4 -3 8
-11 9 -18 3 -18 -19 0 -24 20 -10 37 9 12 9 15 1 9 -18 -10 -17 24 2 44 13 14
13 17 0 17 -8 0 -11 -5 -8 -10 3 -6 1 -7 -5 -3 -6 3 -11 16 -11 29 0 12 -1 32
-1 43 0 12 -7 27 -15 34 -8 7 -15 18 -15 24 0 7 -9 29 -20 50 -10 22 -17 43
-14 47 3 5 0 9 -6 9 -6 0 -14 8 -17 18 -4 9 -22 38 -40 64 -19 25 -32 52 -31
59 2 8 -7 15 -20 17 -18 3 -22 8 -17 25 5 17 4 19 -4 7 -9 -12 -11 -13 -11 -1
0 8 -3 12 -6 8 -7 -7 -54 38 -54 53 0 5 -3 9 -7 9 -22 -4 -34 4 -48 29 -9 15
-14 19 -11 9 3 -11 2 -15 -4 -12 -6 3 -10 14 -10 23 0 15 -2 15 -10 2 -6 -10
-10 -11 -10 -2 0 6 -7 12 -15 12 -8 0 -15 5 -15 10 0 6 -9 10 -21 10 -11 0
-17 5 -14 10 3 6 -3 10 -14 10 -29 0 -52 11 -45 22 4 6 -1 8 -13 4 -25 -8 -53
2 -49 17 1 7 1 9 -1 5 -6 -11 -41 -10 -47 0 -3 5 -18 10 -33 10 -39 2 -56 6
-72 16 -10 6 -12 5 -7 -2 4 -7 2 -12 -3 -12 -6 0 -11 3 -11 8 0 4 -11 8 -25 8
-14 1 -25 -1 -25 -5 0 -3 -11 -6 -25 -6 -14 0 -25 3 -25 7 0 4 -9 6 -20 5 -11
-1 -20 -4 -20 -7z"/>
<path d="M1010 2401 c0 -6 4 -13 10 -16 6 -3 7 1 4 9 -7 18 -14 21 -14 7z"/>
<path d="M1866 2222 c-3 -5 1 -9 9 -9 8 0 12 4 9 9 -3 4 -7 8 -9 8 -2 0 -6 -4
-9 -8z"/>
<path d="M1975 2099 c-4 -6 -5 -12 -2 -15 2 -3 7 2 10 11 7 17 1 20 -8 4z"/>
<path d="M1996 2057 c3 -10 9 -15 12 -12 3 3 0 11 -7 18 -10 9 -11 8 -5 -6z"/>
<path d="M2074 1920 c0 -13 4 -16 10 -10 7 7 7 13 0 20 -6 6 -10 3 -10 -10z"/>
<path d="M2126 1627 c3 -10 9 -15 12 -12 3 3 0 11 -7 18 -10 9 -11 8 -5 -6z"/>
<path d="M2150 1579 c0 -5 5 -7 10 -4 6 3 10 8 10 11 0 2 -4 4 -10 4 -5 0 -10
-5 -10 -11z"/>
<path d="M2050 1245 c-7 -9 -8 -15 -2 -15 5 0 12 7 16 15 3 8 4 15 2 15 -2 0
-9 -7 -16 -15z"/>
<path d="M576 1158 c3 -5 10 -6 15 -3 13 9 11 12 -6 12 -8 0 -12 -4 -9 -9z"/>
<path d="M1995 1141 c-3 -5 -2 -12 3 -15 5 -3 9 1 9 9 0 17 -3 19 -12 6z"/>
<path d="M1953 1075 c0 -8 4 -12 9 -9 5 3 6 10 3 15 -9 13 -12 11 -12 -6z"/>
<path d="M1910 1040 c-6 -11 -8 -20 -6 -20 3 0 10 9 16 20 6 11 8 20 6 20 -3
0 -10 -9 -16 -20z"/>
<path d="M1855 990 c-3 -5 -1 -10 4 -10 6 0 11 5 11 10 0 6 -2 10 -4 10 -3 0
-8 -4 -11 -10z"/>
<path d="M1796 941 c-3 -5 2 -15 12 -22 15 -12 16 -12 5 2 -7 9 -10 19 -6 22
3 4 4 7 0 7 -3 0 -8 -4 -11 -9z"/>
<path d="M800 920 c-9 -6 -10 -10 -3 -10 6 0 15 5 18 10 8 12 4 12 -15 0z"/>
<path d="M1750 900 c0 -5 5 -10 10 -10 6 0 10 5 10 10 0 6 -4 10 -10 10 -5 0
-10 -4 -10 -10z"/>
<path d="M970 831 c0 -6 4 -13 10 -16 6 -3 7 1 4 9 -7 18 -14 21 -14 7z"/>
<path d="M1392 771 c-11 -7 -11 -9 0 -14 9 -3 15 1 15 9 0 8 -1 14 -1 14 -1 0
-7 -4 -14 -9z"/>
<path d="M170 521 c-70 -26 -101 -87 -75 -148 14 -32 79 -87 119 -99 56 -17
74 -66 31 -86 -55 -25 -155 38 -155 98 0 13 -4 24 -10 24 -6 0 -10 -32 -10
-75 l0 -75 24 15 c22 15 29 15 69 1 102 -35 216 18 222 102 4 64 -34 105 -147
158 -65 31 -61 79 7 77 50 -1 98 -33 110 -71 15 -51 25 -37 25 34 l0 66 -26
-17 c-14 -9 -33 -14 -42 -10 -50 19 -101 21 -142 6z"/>
<path d="M584 522 c-17 -2 -30 -26 -65 -115 -24 -62 -44 -114 -44 -117 -3 -21
-42 -83 -59 -95 -25 -18 -28 -17 62 -19 39 -2 72 1 72 6 0 4 -9 8 -20 8 -23 0
-53 51 -44 74 5 12 21 16 69 16 l63 0 15 -45 c15 -44 15 -45 -5 -45 -12 0 -18
-3 -14 -7 8 -8 206 -13 219 -5 5 2 2 9 -6 15 -8 7 -41 82 -72 167 -32 85 -59
156 -60 158 -3 4 -88 7 -111 4z m20 -208 c6 -19 2 -20 -52 -20 l-59 1 12 30
c6 16 20 52 30 79 l18 49 22 -59 c12 -32 25 -68 29 -80z"/>
<path d="M880 519 c-19 -4 -26 -7 -15 -8 34 -2 43 -32 44 -142 1 -116 -11
-165 -40 -174 -34 -11 -12 -19 56 -20 64 -2 84 8 45 20 -33 10 -41 41 -45 153
l-2 106 21 -25 c11 -14 62 -77 111 -140 l90 -114 45 0 46 0 -1 126 c-1 150 6
184 43 203 l27 15 -30 2 c-37 1 -128 1 -135 -1 -3 0 10 -7 28 -15 39 -17 51
-44 51 -120 l0 -57 -76 96 c-41 53 -82 96 -91 97 -91 4 -143 3 -172 -2z"/>
<path d="M1320 518 c0 -5 9 -8 20 -8 19 0 20 -7 20 -160 0 -155 -1 -160 -21
-160 -11 0 -18 -4 -15 -8 6 -10 232 -9 242 1 4 4 -4 7 -17 7 l-24 0 1 153 c1
83 2 155 3 160 0 4 11 7 23 7 12 0 19 3 15 6 -9 9 -247 10 -247 2z"/>
<path d="M1622 522 c-12 -2 -20 -7 -17 -12 3 -5 12 -7 20 -3 19 6 17 17 19
-164 l1 -153 -23 0 c-13 0 -21 -4 -18 -8 4 -7 231 -9 246 -2 3 1 -6 5 -19 9
-22 6 -24 11 -23 74 0 38 2 70 4 72 2 2 22 -30 45 -71 37 -67 40 -74 22 -74
-11 0 -18 -3 -15 -8 3 -6 357 -9 376 -3 3 1 -10 8 -27 16 -18 8 -34 21 -34 30
-5 52 -7 50 61 53 l65 3 17 -46 c17 -44 17 -45 -3 -45 -11 0 -18 -4 -15 -8 3
-6 203 -9 225 -3 3 0 -3 7 -12 13 -9 7 -42 83 -73 168 -32 85 -58 157 -60 158
-2 4 -64 5 -110 3 -14 -1 -25 -11 -32 -28 -109 -284 -121 -306 -154 -301 -14
2 -41 41 -88 125 -62 111 -67 123 -51 136 23 21 93 57 110 57 8 0 12 3 8 6 -8
9 -185 9 -193 1 -4 -4 2 -7 12 -7 23 0 44 -18 44 -36 0 -14 -110 -97 -118 -89
-4 4 -5 34 -3 98 1 22 5 27 28 27 14 0 24 3 21 6 -7 6 -199 11 -236 6z m643
-129 c37 -106 39 -98 -21 -99 -33 0 -54 4 -54 10 0 11 37 113 46 128 9 14 12
9 29 -39z"/>
</g>
</svg>
